PathFileType	4	(X/Y/Z)	C:\Users\Basilio\Documents\Thesis Gigler\squatting_fais\c3dfiles\058\SLS_back_pre3\markers_experimental.trc
DataRate	CameraRate	NumFrames	NumMarkers	Units	OrigDataRate	OrigDataStartFrame	OrigNumFrames
200.000000	200.000000	4	59	mm	200.000000	601	1203
Frame#	Time	FHD			LBHD			RBHD			C7			T10			CLAV			LSHO			LUUPA			LMUPA			LDUPA			LLEP			LMEP			LUL			LRFIN			RSHO			RUPA1			RMUPA			RDUPA			RLEP			RMEP			RUL			RUFIN			LASI			RASI			USACR			LSACR			RSACR			LTHI1			LTHI2			LTHI3			LTHI4			LLFC			LMFC			LTIB1			LTIB2			LTIB3			LTIB4			LLMAL			LMMAL			LHEE			LMT1			LMT2			LMT5			RTHI			RTHI2			RTHI3			RTHI4			RLFC			RMFC			RTIB1			RTIB2			RTIB3			RTIB4			RLMAL			RMMAL			RHEE			RMT1			RMT2			RMT5			
		X1	Y1	Z1	X2	Y2	Z2	X3	Y3	Z3	X4	Y4	Z4	X5	Y5	Z5	X6	Y6	Z6	X7	Y7	Z7	X8	Y8	Z8	X9	Y9	Z9	X10	Y10	Z10	X11	Y11	Z11	X12	Y12	Z12	X13	Y13	Z13	X14	Y14	Z14	X15	Y15	Z15	X16	Y16	Z16	X17	Y17	Z17	X18	Y18	Z18	X19	Y19	Z19	X20	Y20	Z20	X21	Y21	Z21	X22	Y22	Z22	X23	Y23	Z23	X24	Y24	Z24	X25	Y25	Z25	X26	Y26	Z26	X27	Y27	Z27	X28	Y28	Z28	X29	Y29	Z29	X30	Y30	Z30	X31	Y31	Z31	X32	Y32	Z32	X33	Y33	Z33	X34	Y34	Z34	X35	Y35	Z35	X36	Y36	Z36	X37	Y37	Z37	X38	Y38	Z38	X39	Y39	Z39	X40	Y40	Z40	X41	Y41	Z41	X42	Y42	Z42	X43	Y43	Z43	X44	Y44	Z44	X45	Y45	Z45	X46	Y46	Z46	X47	Y47	Z47	X48	Y48	Z48	X49	Y49	Z49	X50	Y50	Z50	X51	Y51	Z51	X52	Y52	Z52	X53	Y53	Z53	X54	Y54	Z54	X55	Y55	Z55	X56	Y56	Z56	X57	Y57	Z57	X58	Y58	Z58	X59	Y59	Z59	

602	3.005	-194.447738647461	1589.585693359375	-624.9174194335939	-349.9892272949219	1541.292846679688	-702.3051147460939	-180.1177368164063	1600.709228515625	-766.7047729492189	-368.8888854980469	1397.168823242188	-716.4204711914064	-441.4678344726564	1109.356811523438	-726.6373291015626	-216.8901062011719	1330.406982421875	-701.8872070312501	-226.1445312500001	1390.483642578125	-851.295349121094	-78.75476074218751	1336.473999023438	-964.2033691406252	-54.7847366333008	1372.262939453125	-936.722106933594	-9.11127281188965	1337.01904296875	-955.2512207031252	67.24021148681642	1341.081787109375	-938.7025146484377	66.57447814941408	1283.581665039063	-902.731140136719	332.3163452148438	1389.298583984375	-896.3740234375002	425.7212829589845	1391.00048828125	-812.367858886719	-240.7976226806641	1387.918579101563	-553.7301025390626	-87.30683898925783	1307.36865234375	-446.8504333496095	-65.95096588134767	1345.86767578125	-471.4647827148439	-18.62566375732422	1317.727416992188	-449.2456054687501	49.43128585815431	1312.211303710938	-458.3743286132814	57.20878219604494	1253.166259765625	-508.0082397460939	315.3127746582032	1367.127197265625	-472.5098876953126	404.4570312500001	1388.756713867188	-542.6624755859376	-318.8676147460938	863.7989501953127	-853.5080566406252	-319.9089050292969	884.7401123046877	-615.5509033203126	-486.3040771484376	1001.088500976563	-730.8240356445314	-500.1146545410157	970.3108520507815	-757.1820678710939	-500.0260314941407	973.2835693359377	-698.9044189453126	-336.9511108398438	607.5781250000001	-938.8092041015627	-292.6276550292969	533.6812133789064	-941.1599731445315	-249.9021759033204	536.9465332031251	-913.902038574219	-314.3049926757813	476.4495544433595	-938.057556152344	-320.7185668945313	399.3656616210939	-927.6111450195315	-300.8416748046876	374.2590942382813	-797.9711914062502	-407.9402160644532	307.1212463378907	-890.026062011719	-462.1507263183595	363.8314208984376	-928.9041748046877	-460.2011108398439	320.9344787597657	-918.7355957031252	-535.0156860351564	298.9978027343751	-886.2741699218752	-734.1681518554689	343.0245056152344	-876.4157714843752	-711.7784423828126	299.4689025878907	-796.1234130859377	-714.3887329101564	397.784881591797	-814.0356445312502	-840.504577636719	218.6614837646485	-790.6298828125002	nan	nan	nan	-864.8265380859377	275.2092895507813	-879.0281982421877	-344.2256774902344	705.5634155273439	-542.2598266601564	-280.7518615722657	683.4652099609376	-547.4738769531251	-253.7928771972657	701.4257202148439	-551.7365722656251	-258.9364624023438	605.3407592773439	-569.5467529296876	-168.7359008789063	471.6788940429689	-605.8754272460939	-146.6718902587891	484.0484924316407	-738.8273315429689	-196.6643676757813	301.7402343750001	-721.1182861328126	-262.3633422851563	237.9589080810547	-657.5899047851564	-236.593490600586	224.6474761962891	-695.1995239257814	-266.6811218261719	194.5532531738282	-734.5265502929689	-363.7687683105469	112.2793579101563	-697.8191528320314	-332.3439941406251	139.1316223144532	-782.815368652344	-437.6197814941407	102.4587173461914	-763.9435424804689	-227.7709655761719	61.54578018188478	-773.4953613281252	-224.7171020507813	57.44887924194337	-721.6116943359376	-273.6634521484376	25.08923339843751	-671.4092407226564	
603	3.01	-194.0874938964844	1588.773559570313	-625.0708618164064	-349.9152526855469	1540.432861328125	-702.4765014648439	-180.0450897216797	1600.03271484375	-766.7524414062501	-368.7823791503907	1396.2705078125	-716.5054321289064	-441.2727966308595	1108.73876953125	-726.8416748046876	-216.6923370361329	1329.486450195313	-702.0414428710939	-226.0978088378907	1389.360961914063	-851.412536621094	-78.47454071044923	1335.507934570313	-964.409118652344	-54.64170074462892	1371.374633789063	-936.9375000000002	-8.96853542327881	1336.119384765625	-955.4455566406252	67.43604278564455	1340.247924804688	-938.961120605469	66.81320190429689	1282.625	-902.9854736328127	332.4554748535157	1388.4384765625	-896.5723876953127	426.164031982422	1389.681274414063	-812.5520019531252	-240.9465484619141	1387.306518554688	-554.1265869140626	-87.04623413085939	1306.270874023438	-447.049285888672	-65.43272399902345	1345.103271484375	-471.8365478515626	-18.38046836853028	1316.755249023438	-449.4741210937501	49.66685485839845	1311.263305664063	-458.4821166992189	57.26926803588869	1252.066528320313	-508.2688598632814	315.1294860839844	1365.692626953125	-473.0383300781251	405.0586242675782	1387.91552734375	-542.5226440429689	-319.0106811523438	862.8848266601565	-853.3321533203127	-320.1330261230469	884.2648925781252	-615.3186035156251	-486.2725219726564	1000.523498535156	-731.0898437500001	-500.1726684570314	969.5421142578127	-757.3564453125001	-499.991180419922	972.7634277343752	-699.2548217773439	-336.4663391113282	606.6660766601564	-938.724304199219	-292.3683471679688	532.8578491210939	-940.8799438476565	-249.6350860595704	536.4192504882814	-913.6112060546877	-314.2084350585938	475.6232910156251	-937.8804321289065	-320.5537719726563	398.7539978027345	-927.242370605469	-300.4927368164063	373.7160339355469	-797.928649902344	-407.7691955566407	306.8613586425782	-890.212829589844	-462.0226440429689	363.2895202636719	-928.6749267578127	-459.9194641113282	320.2603149414063	-918.4480590820315	-535.1542968750001	297.8190002441407	-885.4099731445315	-733.7988891601564	342.3727111816407	-876.1575927734377	-711.5945434570314	299.2668762207032	-795.7607421875002	-714.0871582031251	397.3209838867189	-813.835876464844	-840.3518676757815	217.9990539550782	-790.410339355469	nan	nan	nan	-864.6706542968752	274.5859985351563	-878.6968994140627	-344.6586608886719	705.0115356445314	-541.8996582031251	-280.7354125976563	683.4137573242189	-547.2210693359376	-253.9550170898438	701.2676391601564	-551.3941650390626	-259.0739440917969	604.9753417968751	-569.2786865234376	-168.4532012939453	471.3812866210939	-605.4809570312501	-146.2861328125	483.9958496093751	-738.4702758789064	-196.4791259765626	301.6390686035157	-721.0434570312501	-262.4208068847657	237.6857910156251	-657.4247436523439	-236.4638977050782	224.4707336425782	-695.0239868164064	-266.6030883789063	194.7992858886719	-734.5040283203126	-363.7385864257813	112.2644729614258	-697.8247070312501	-332.2077941894532	139.1100158691407	-782.8406372070315	-437.5759887695314	102.4421844482422	-763.9967041015626	-227.720687866211	61.59695053100587	-773.4072875976565	-224.6951293945313	57.49447631835939	-721.6082763671876	-273.5851135253907	25.05049133300782	-671.4398803710939	
604	3.015	-194.1026306152344	1587.990112304688	-625.2330932617189	-349.5012817382813	1539.869873046875	-702.7183837890626	-179.7918548583985	1599.294311523438	-766.8515625000001	-368.5999145507813	1395.457153320313	-716.6524047851564	-441.2195129394532	1108.069946289063	-726.9348754882814	-216.5778503417969	1328.90478515625	-702.0783691406251	-225.8483276367188	1388.518310546875	-851.5772705078127	-78.24745941162111	1334.634643554688	-964.5777587890627	-54.35691452026369	1370.603515625	-937.2332153320315	-9.033480644226076	1335.2451171875	-955.6509399414065	67.79048156738283	1339.446411132813	-939.2385864257815	66.84362792968751	1281.783447265625	-903.2293090820315	332.6164550781251	1387.492919921875	-896.7546386718752	426.4129028320314	1388.501098632813	-812.7113037109377	-240.8989257812501	1386.484130859375	-554.2066040039064	-86.98277282714845	1305.391479492188	-447.1322021484376	-65.77584838867189	1344.148315429688	-471.5757751464845	-18.40070152282715	1315.690673828125	-449.4835510253907	49.75545501708986	1310.172607421875	-458.599090576172	57.26655197143556	1251.040161132813	-508.4055786132814	315.7685852050782	1364.940185546875	-472.8726806640626	404.7736206054689	1386.578491210938	-543.3328247070314	-319.1033020019532	861.998718261719	-853.163757324219	-320.4199218750001	883.576354980469	-615.1279296875001	-486.1798706054689	999.7615356445315	-731.2741699218751	-500.277069091797	968.9705200195315	-757.4855346679689	-500.1830444335939	972.0390625000002	-699.5310668945314	-336.3664855957032	605.9535522460939	-938.4713134765627	-292.1813049316407	531.9119262695314	-940.7167968750002	-249.4956054687501	535.7815551757814	-913.3245239257815	-313.8654785156251	474.9724731445314	-937.680847167969	-320.4199829101563	398.0304565429689	-926.9521484375002	-300.4608764648438	373.0715942382813	-797.6257324218752	-407.5689086914064	306.3422851562501	-889.7595214843752	-461.7782287597657	362.6565856933594	-928.568298339844	-459.653289794922	319.7608947753907	-918.094909667969	-534.4371948242189	297.0798950195313	-885.3674316406252	-733.5660400390626	341.9629821777344	-875.8115844726565	-711.3265991210939	298.6126403808594	-795.623962402344	-713.9375610351564	396.9555053710939	-813.522155761719	-840.1899414062502	217.4824829101563	-790.210876464844	nan	nan	nan	-865.0611572265627	274.5905456542969	-878.3409423828127	-344.8135375976563	704.6377563476564	-541.7600097656251	-281.2072448730469	682.9426269531251	-547.0429077148439	-254.559310913086	701.0736083984376	-550.7775268554689	-259.1896362304688	604.3984375000001	-568.9024658203126	-168.5214996337891	471.0130310058595	-605.1007080078126	-145.9158782958985	483.9563293457032	-738.1995239257814	-196.4165954589844	301.5023498535157	-720.8687133789064	-262.3823547363282	237.3552703857422	-657.2952880859376	-236.7841339111329	224.6663665771485	-695.4042968750001	-266.5576477050782	194.7153625488282	-734.4797363281251	-363.7417602539063	112.2464218139649	-697.8620605468751	-332.2536926269532	139.0984039306641	-782.8900146484377	-437.5256958007814	102.4344100952149	-764.0579833984376	-227.7687225341797	61.57204437255861	-773.4099121093752	-224.7192077636719	57.45442962646486	-721.5671386718751	-273.6255187988282	25.14603805541993	-671.4259643554689	
605	3.02	-194.1080474853516	1587.305541992188	-625.2836914062501	-349.4580383300782	1539.095703125	-702.9121093750001	-179.649887084961	1598.40771484375	-767.0270996093751	-368.2808532714844	1394.844360351563	-716.9002075195314	-441.1953735351564	1107.41845703125	-727.0867309570314	-216.3602905273438	1328.013305664063	-702.2095947265626	-225.7197265625001	1388.006103515625	-851.6431274414065	-78.11244201660158	1333.726440429688	-964.852233886719	-54.100399017334	1369.696533203125	-937.3989868164065	-8.511927604675295	1334.336669921875	-955.8826293945315	67.76311492919923	1338.499877929688	-939.3752441406252	67.02650451660158	1280.977783203125	-903.4840087890627	332.7600708007813	1386.531372070313	-896.9001464843752	426.4856262207032	1387.226196289063	-813.0212402343752	-240.6419067382813	1385.50537109375	-554.3249511718751	-87.04598999023439	1304.555908203125	-447.1145019531251	-65.50056457519533	1343.1552734375	-471.8124084472657	-18.38407707214356	1314.761596679688	-449.661102294922	49.83517074584962	1309.435180664063	-458.7313232421876	57.66156005859376	1250.2890625	-508.4623107910157	316.0124511718751	1363.986938476563	-473.1058654785157	405.1920166015626	1385.761108398438	-543.1433715820314	-319.0779113769532	861.1660766601565	-852.8020629882815	-320.6088562011719	882.8318481445315	-614.9833374023439	-486.3157653808595	999.1175537109377	-731.4354858398439	-500.2499389648439	968.3645629882815	-757.7600708007814	-500.2557983398439	971.4875488281252	-699.7453613281251	-336.2138977050782	605.3265380859376	-938.2630004882815	-291.8135681152344	531.4298706054689	-940.3632812500002	-249.2137603759766	534.9960937500001	-913.0251464843752	-313.6166076660157	474.3126525878907	-937.3532714843752	-319.9250488281251	397.2407836914064	-926.7150878906252	-300.4639892578126	372.3088684082032	-797.2683715820315	-407.4114379882814	305.6415710449219	-889.321716308594	-461.5585327148439	361.8580932617188	-928.1506347656252	-459.4052734375001	319.1781005859376	-917.7654418945315	-534.2338867187501	296.4212646484376	-884.9475708007815	-733.3201904296876	341.4624938964844	-875.513610839844	-711.2177734375001	297.9986572265626	-795.252868652344	-713.8115234375001	396.1878356933595	-813.2734985351565	-840.0461425781252	216.834457397461	-789.8101196289065	nan	nan	nan	-864.7882080078127	273.9154968261719	-877.976989746094	-344.8738098144532	704.0783691406251	-541.6397705078126	-281.4706420898438	682.7655639648439	-546.6990356445314	-254.7804565429688	700.9696655273439	-550.5078735351564	-259.3023071289063	604.3195190429689	-568.6643066406251	-168.4385681152344	470.8003234863282	-604.7986450195314	-145.5202941894532	483.8502807617189	-737.9992065429689	-196.2051239013672	301.4753723144532	-720.6828613281251	-262.3429870605469	237.1846313476563	-657.1942749023439	-236.7420349121094	224.8370666503907	-695.4729003906251	-266.5074768066407	194.6410522460938	-734.4538574218751	-363.7002258300782	112.2090606689453	-697.8591918945314	-332.2014160156251	139.0477905273438	-782.9353637695315	-437.5244445800782	102.4219512939453	-764.0877685546876	-228.6713562011719	61.34050750732423	-773.984313964844	-224.7312774658204	57.46227264404298	-721.5656127929689	-273.7129821777344	25.12372398376466	-671.3517456054689	
